<?xml version="1.0" encoding="UTF-8" standalone="no"?><svg xmlns="http://www.w3.org/2000/svg" xmlns:xlink="http://www.w3.org/1999/xlink" contentScriptType="application/ecmascript" contentStyleType="text/css" height="498px" preserveAspectRatio="none" style="width:294px;height:498px;" version="1.1" viewBox="0 0 294 498" width="294px" zoomAndPan="magnify"><defs><filter height="300%" id="f14am30wsdrd52" width="300%" x="-1" y="-1"><feGaussianBlur result="blurOut" stdDeviation="2.0"/><feColorMatrix in="blurOut" result="blurOut2" type="matrix" values="0 0 0 0 0 0 0 0 0 0 0 0 0 0 0 0 0 0 .4 0"/><feOffset dx="4.0" dy="4.0" in="blurOut2" result="blurOut3"/><feBlend in="SourceGraphic" in2="blurOut3" mode="normal"/></filter></defs><g><rect fill="#FFFFFF" filter="url(#f14am30wsdrd52)" height="170.6641" style="stroke: #A80036; stroke-width: 1.0;" width="10" x="240.5" y="127.6953"/><line style="stroke: #A80036; stroke-width: 1.0; stroke-dasharray: 5.0,5.0;" x1="36" x2="36" y1="38.2969" y2="457.8906"/><line style="stroke: #A80036; stroke-width: 1.0; stroke-dasharray: 5.0,5.0;" x1="138.5" x2="138.5" y1="38.2969" y2="457.8906"/><line style="stroke: #A80036; stroke-width: 1.0; stroke-dasharray: 5.0,5.0;" x1="245.5" x2="245.5" y1="38.2969" y2="457.8906"/><rect fill="#FEFECE" filter="url(#f14am30wsdrd52)" height="30.2969" style="stroke: #A80036; stroke-width: 1.5;" width="53" x="8" y="3"/><text fill="#000000" font-family="sans-serif" font-size="14" lengthAdjust="spacingAndGlyphs" textLength="39" x="15" y="22.9951">Client</text><rect fill="#FEFECE" filter="url(#f14am30wsdrd52)" height="30.2969" style="stroke: #A80036; stroke-width: 1.5;" width="53" x="8" y="456.8906"/><text fill="#000000" font-family="sans-serif" font-size="14" lengthAdjust="spacingAndGlyphs" textLength="39" x="15" y="476.8857">Client</text><rect fill="#FEFECE" filter="url(#f14am30wsdrd52)" height="30.2969" style="stroke: #A80036; stroke-width: 1.5;" width="58" x="107.5" y="3"/><text fill="#000000" font-family="sans-serif" font-size="14" lengthAdjust="spacingAndGlyphs" textLength="44" x="114.5" y="22.9951">Server</text><rect fill="#FEFECE" filter="url(#f14am30wsdrd52)" height="30.2969" style="stroke: #A80036; stroke-width: 1.5;" width="58" x="107.5" y="456.8906"/><text fill="#000000" font-family="sans-serif" font-size="14" lengthAdjust="spacingAndGlyphs" textLength="44" x="114.5" y="476.8857">Server</text><rect fill="#FEFECE" filter="url(#f14am30wsdrd52)" height="30.2969" style="stroke: #A80036; stroke-width: 1.5;" width="80" x="203.5" y="3"/><text fill="#000000" font-family="sans-serif" font-size="14" lengthAdjust="spacingAndGlyphs" textLength="66" x="210.5" y="22.9951">Database</text><rect fill="#FEFECE" filter="url(#f14am30wsdrd52)" height="30.2969" style="stroke: #A80036; stroke-width: 1.5;" width="80" x="203.5" y="456.8906"/><text fill="#000000" font-family="sans-serif" font-size="14" lengthAdjust="spacingAndGlyphs" textLength="66" x="210.5" y="476.8857">Database</text><rect fill="#FFFFFF" filter="url(#f14am30wsdrd52)" height="170.6641" style="stroke: #A80036; stroke-width: 1.0;" width="10" x="240.5" y="127.6953"/><polygon fill="#A80036" points="126.5,65.4297,136.5,69.4297,126.5,73.4297,130.5,69.4297" style="stroke: #A80036; stroke-width: 1.0;"/><line style="stroke: #A80036; stroke-width: 1.0;" x1="36.5" x2="132.5" y1="69.4297" y2="69.4297"/><text fill="#000000" font-family="sans-serif" font-size="13" lengthAdjust="spacingAndGlyphs" textLength="52" x="43.5" y="64.3638">开始查询</text><polygon fill="#A80036" points="47.5,94.5625,37.5,98.5625,47.5,102.5625,43.5,98.5625" style="stroke: #A80036; stroke-width: 1.0;"/><line style="stroke: #A80036; stroke-width: 1.0;" x1="41.5" x2="137.5" y1="98.5625" y2="98.5625"/><text fill="#000000" font-family="sans-serif" font-size="13" lengthAdjust="spacingAndGlyphs" textLength="78" x="53.5" y="93.4966">返回任务信息</text><polygon fill="#A80036" points="228.5,123.6953,238.5,127.6953,228.5,131.6953,232.5,127.6953" style="stroke: #A80036; stroke-width: 1.0;"/><line style="stroke: #A80036; stroke-width: 1.0;" x1="138.5" x2="234.5" y1="127.6953" y2="127.6953"/><text fill="#000000" font-family="sans-serif" font-size="13" lengthAdjust="spacingAndGlyphs" textLength="78" x="145.5" y="122.6294">获取查询数据</text><polygon fill="#A80036" points="126.5,152.8281,136.5,156.8281,126.5,160.8281,130.5,156.8281" style="stroke: #A80036; stroke-width: 1.0;"/><line style="stroke: #A80036; stroke-width: 1.0;" x1="36.5" x2="132.5" y1="156.8281" y2="156.8281"/><text fill="#000000" font-family="sans-serif" font-size="13" lengthAdjust="spacingAndGlyphs" textLength="78" x="43.5" y="151.7622">轮询任务状态</text><polygon fill="#A80036" points="47.5,181.9609,37.5,185.9609,47.5,189.9609,43.5,185.9609" style="stroke: #A80036; stroke-width: 1.0;"/><line style="stroke: #A80036; stroke-width: 1.0;" x1="41.5" x2="137.5" y1="185.9609" y2="185.9609"/><text fill="#000000" font-family="sans-serif" font-size="13" lengthAdjust="spacingAndGlyphs" textLength="58" x="53.5" y="180.895">STARTED</text><polygon fill="#A80036" points="126.5,236.0938,136.5,240.0938,126.5,244.0938,130.5,240.0938" style="stroke: #A80036; stroke-width: 1.0;"/><line style="stroke: #A80036; stroke-width: 1.0;" x1="36.5" x2="132.5" y1="240.0938" y2="240.0938"/><text fill="#000000" font-family="sans-serif" font-size="13" lengthAdjust="spacingAndGlyphs" textLength="78" x="43.5" y="235.0278">轮询任务状态</text><polygon fill="#A80036" points="47.5,265.2266,37.5,269.2266,47.5,273.2266,43.5,269.2266" style="stroke: #A80036; stroke-width: 1.0;"/><line style="stroke: #A80036; stroke-width: 1.0;" x1="41.5" x2="137.5" y1="269.2266" y2="269.2266"/><text fill="#000000" font-family="sans-serif" font-size="13" lengthAdjust="spacingAndGlyphs" textLength="58" x="53.5" y="264.1606">STARTED</text><polygon fill="#A80036" points="149.5,294.3594,139.5,298.3594,149.5,302.3594,145.5,298.3594" style="stroke: #A80036; stroke-width: 1.0;"/><line style="stroke: #A80036; stroke-width: 1.0;" x1="143.5" x2="244.5" y1="298.3594" y2="298.3594"/><text fill="#000000" font-family="sans-serif" font-size="13" lengthAdjust="spacingAndGlyphs" textLength="78" x="155.5" y="293.2935">返回查询数据</text><polygon fill="#A80036" points="126.5,323.4922,136.5,327.4922,126.5,331.4922,130.5,327.4922" style="stroke: #A80036; stroke-width: 1.0;"/><line style="stroke: #A80036; stroke-width: 1.0;" x1="36.5" x2="132.5" y1="327.4922" y2="327.4922"/><text fill="#000000" font-family="sans-serif" font-size="13" lengthAdjust="spacingAndGlyphs" textLength="78" x="43.5" y="322.4263">轮询任务状态</text><polygon fill="#A80036" points="47.5,352.625,37.5,356.625,47.5,360.625,43.5,356.625" style="stroke: #A80036; stroke-width: 1.0;"/><line style="stroke: #A80036; stroke-width: 1.0;" x1="41.5" x2="137.5" y1="356.625" y2="356.625"/><text fill="#000000" font-family="sans-serif" font-size="13" lengthAdjust="spacingAndGlyphs" textLength="63" x="53.5" y="351.5591">SUCCESS</text><polygon fill="#A80036" points="126.5,406.7578,136.5,410.7578,126.5,414.7578,130.5,410.7578" style="stroke: #A80036; stroke-width: 1.0;"/><line style="stroke: #A80036; stroke-width: 1.0;" x1="36.5" x2="132.5" y1="410.7578" y2="410.7578"/><text fill="#000000" font-family="sans-serif" font-size="13" lengthAdjust="spacingAndGlyphs" textLength="78" x="43.5" y="405.6919">请求查询结果</text><polygon fill="#A80036" points="47.5,435.8906,37.5,439.8906,47.5,443.8906,43.5,439.8906" style="stroke: #A80036; stroke-width: 1.0;"/><line style="stroke: #A80036; stroke-width: 1.0;" x1="41.5" x2="137.5" y1="439.8906" y2="439.8906"/><text fill="#000000" font-family="sans-serif" font-size="13" lengthAdjust="spacingAndGlyphs" textLength="78" x="53.5" y="434.8247">返回查询结果</text><!--
@startuml
Client -> Server : 开始查询


Server -> Client : 返回任务信息

Server -> Database : 获取查询数据
activate Database 


Client -> Server : 轮询任务状态
Server -> Client : STARTED
|||
Client -> Server : 轮询任务状态
Server -> Client : STARTED

Database -> Server : 返回查询数据
deactivate Database 

Client -> Server : 轮询任务状态
Server -> Client : SUCCESS
|||
Client -> Server : 请求查询结果
Server -> Client : 返回查询结果
@enduml

PlantUML version 1.2019.07(Mon Jun 24 19:59:20 UTC 2019)
(GPL source distribution)
Java Runtime: Java(TM) SE Runtime Environment
JVM: Java HotSpot(TM) 64-Bit Server VM
Java Version: 1.7.0_25-b15
Operating System: Linux
Default Encoding: UTF-8
Language: en
Country: US
--></g></svg>